# xmcd
# 
# Track frame offsets:
#     150
#     29475
#     50135
#     71290
#     85740
#     105782
#     126350
#     149817
#     174350
#     189360
#     205750
# 
# Disc length: 2824
# 
# Revision: 1
# Processed by: cddbd v1.5.2PL0 Copyright (c) Steve Scherf et al.
# Submitted via: BonkEnc v1.0.8
# 
DISCID=970b060b
DTITLE=Mark Ford - Robben Ford - Mark Ford with The Robben Ford Band
DYEAR=1990
DGENRE=Blues
TTITLE0=Mellow Down Easy
TTITLE1=Ain't Got Dough
TTITLE2=Heart Breakin Blues
TTITLE3=My Baby Didn't Come
TTITLE4=Up And Out
TTITLE5=On The Road Again
TTITLE6=Up From The Streets
TTITLE7=Fool For Love
TTITLE8=Live The Life I Love
TTITLE9=Hot Cha Cha
TTITLE10=Is It Makebelieve?
EXTD=
EXTT0=
EXTT1=
EXTT2=
EXTT3=
EXTT4=
EXTT5=
EXTT6=
EXTT7=
EXTT8=
EXTT9=
EXTT10=
PLAYORDER=
